<?xml version="1.0" encoding="UTF-8"?>
<svg version="1.1" xmlns="http://www.w3.org/2000/svg" width="512" height="512">
<path d="M0 0 C1.26166992 0.25740967 1.26166992 0.25740967 2.54882812 0.52001953 C40.27068455 8.28505951 75.60407301 25.67732427 103.85546875 52.0078125 C105.79217432 53.80693789 107.78148736 55.49709196 109.8125 57.1875 C129.56702739 74.47271146 144.82145819 96.93875545 157 120 C157.59425781 121.12019531 158.18851562 122.24039063 158.80078125 123.39453125 C171.13934279 148.21347687 178.96264241 177.10430504 179.23828125 204.8984375 C179.24812042 205.72264191 179.25795959 206.54684631 179.26809692 207.39602661 C179.66612482 249.44937557 171.96649666 287.67694138 152 325 C151.38640625 326.15628906 150.7728125 327.31257813 150.140625 328.50390625 C121.36425142 380.76513017 71.85707627 419.67918713 15 437 C-4.66762957 442.54401222 -23.59389683 445.39737428 -44 445.3125 C-44.90729858 445.31067719 -45.81459717 445.30885437 -46.74938965 445.30697632 C-60.36622998 445.26090656 -73.6282214 444.78239405 -87 442 C-87.85819336 441.82839355 -88.71638672 441.65678711 -89.60058594 441.47998047 C-112.35644378 436.82820756 -134.87107015 428.8364282 -154.93359375 417.03125 C-165.65684516 413.42495908 -175.85936542 417.83206941 -185.99998856 421.37068176 C-188.83787026 422.36077833 -191.68218548 423.32992807 -194.52890015 424.29431152 C-200.56737382 426.34428485 -206.59641912 428.42115002 -212.625 430.5 C-219.62329094 432.91016513 -226.6251991 435.30903104 -233.63459396 437.6867218 C-236.42648494 438.63916621 -239.21219761 439.60828086 -241.99795532 440.57849121 C-243.72054395 441.16572357 -245.44338084 441.75222834 -247.16650391 442.33789062 C-247.93037918 442.60906204 -248.69425446 442.88023346 -249.48127747 443.15962219 C-254.65203815 444.89154843 -259.54377666 445.66892071 -265 445 C-267.5625 443.5625 -267.5625 443.5625 -269 441 C-269.78277075 434.6151296 -268.45805943 429.13890522 -266.33789062 423.16650391 C-265.91361031 421.91819542 -265.91361031 421.91819542 -265.48075867 420.64466858 C-264.86960999 418.85192376 -264.25227029 417.06127964 -263.62931824 415.27260208 C-262.64132226 412.43366875 -261.6713035 409.58914105 -260.70568848 406.74252319 C-258.30463176 399.67508469 -255.8765744 392.6170101 -253.44329834 385.56060791 C-251.38479695 379.58982054 -249.33971913 373.6147859 -247.3132782 367.63303757 C-246.36246395 364.84395725 -245.39235446 362.06209615 -244.42150879 359.27993774 C-239.47490707 345.17583755 -239.47490707 345.17583755 -241.08227539 330.59008789 C-241.58235107 329.64383545 -242.08242676 328.69758301 -242.59765625 327.72265625 C-243.14873047 326.64242188 -243.69980469 325.5621875 -244.26757812 324.44921875 C-245.15606445 322.77279297 -245.15606445 322.77279297 -246.0625 321.0625 C-259.81926415 294.03218687 -268.94413211 263.41275734 -269.23828125 232.8828125 C-269.2480751 232.03627609 -269.25786896 231.18973969 -269.26795959 230.31755066 C-269.44643239 210.87112352 -269.12464915 192.09455157 -265 173 C-264.78569336 172.00564941 -264.57138672 171.01129883 -264.35058594 169.98681641 C-256.70213992 135.8026046 -241.31093075 103.32451115 -218 77 C-216.98292969 75.82050781 -216.98292969 75.82050781 -215.9453125 74.6171875 C-181.62816218 35.52329098 -135.8462901 10.37139635 -85 0 C-83.81301514 -0.24991699 -83.81301514 -0.24991699 -82.60205078 -0.50488281 C-56.69879408 -5.70815708 -25.81219136 -5.63885255 0 0 Z M-73.4375 120 C-75.5571718 124.06976986 -76.12964269 127.18429684 -76.0625 131.75 C-76.05347656 132.54921875 -76.04445312 133.3484375 -76.03515625 134.171875 C-76.02355469 134.77515625 -76.01195312 135.3784375 -76 136 C-76.65066437 135.99333817 -77.30132874 135.98667633 -77.97171021 135.97981262 C-84.75257418 135.91336836 -91.53334543 135.86816147 -98.31445312 135.83520508 C-100.84411374 135.82013214 -103.37374829 135.79967039 -105.90332031 135.77368164 C-109.54238323 135.73723384 -113.18110016 135.7202583 -116.8203125 135.70703125 C-118.51282639 135.68380547 -118.51282639 135.68380547 -120.23953247 135.66011047 C-125.86374043 135.65890894 -130.21376731 135.65837075 -135 139 C-136.42041821 141.84083641 -136.31452272 143.85477278 -136 147 C-133.76793569 149.84780619 -132.45007001 150.84997666 -129 152 C-126.66700175 152.03954234 -124.33291811 152.04401732 -122 152 C-122.00368717 152.77322759 -122.00737434 153.54645517 -122.01117325 154.3431139 C-122.09965656 173.19039633 -122.16577384 192.0376371 -122.20724869 210.8850832 C-122.22784068 219.99971812 -122.2558967 229.11421407 -122.30175781 238.22875977 C-122.34172885 246.17651329 -122.36745724 254.12416612 -122.37635398 262.07201737 C-122.38155141 266.27720148 -122.39369644 270.48209763 -122.42292023 274.6871891 C-122.450252 278.65249773 -122.45840953 282.61740222 -122.45243073 286.5827961 C-122.45352308 288.03111219 -122.4613708 289.47944307 -122.4768219 290.92767715 C-122.5806591 301.17054811 -121.47748467 309.57921507 -115.875 318.3125 C-110.19415833 323.622852 -103.46866221 328.10455604 -95.52377319 328.14717102 C-94.60709869 328.15432632 -93.69042419 328.16148163 -92.74597168 328.16885376 C-91.74231567 328.17154266 -90.73865967 328.17423157 -89.70458984 328.17700195 C-88.11627853 328.18685875 -88.11627853 328.18685875 -86.49588013 328.19691467 C-82.98423188 328.21665837 -79.47262647 328.22831388 -75.9609375 328.23828125 C-74.16154158 328.24439454 -74.16154158 328.24439454 -72.32579422 328.25063133 C-65.97419659 328.27149852 -59.6226206 328.28579639 -53.27099609 328.29516602 C-46.71731152 328.30622033 -40.16396742 328.34060758 -33.61040306 328.38033772 C-28.56596251 328.40651463 -23.52160287 328.41485894 -18.47710037 328.41844749 C-16.06185232 328.4233121 -13.64660785 328.43492243 -11.23142624 328.45348549 C-7.8446045 328.47789449 -4.45866056 328.47690797 -1.07177734 328.4699707 C0.41548859 328.48918579 0.41548859 328.48918579 1.93280029 328.50878906 C10.55432693 328.44466446 17.99833882 325.88148447 24.37644005 319.92187881 C31.88142036 311.03790588 32.85859958 301.7096872 32.68115234 290.50097656 C32.6794559 288.98198515 32.6804177 287.46298883 32.68380737 285.94400024 C32.68551504 281.85762277 32.65046776 277.77232179 32.60836363 273.68619251 C32.57062184 269.40215968 32.56731293 265.11809678 32.56021118 260.83392334 C32.54163071 252.73799719 32.49248687 244.6425625 32.43211424 236.54685187 C32.36483617 227.32311866 32.3320068 218.09936084 32.30194163 208.87544298 C32.23938089 189.91668432 32.13397961 170.9583818 32 152 C33.64742188 152.02126953 33.64742188 152.02126953 35.328125 152.04296875 C38.94241225 152.0006739 40.90469333 151.80559556 44 150 C46.07976712 147.83928533 46.07976712 147.83928533 47 145 C46.23827309 141.46835704 45.56128588 139.56128588 43 137 C39.88325685 135.9256315 36.95843865 135.87867038 33.68066406 135.88647461 C32.08946747 135.88658791 32.08946747 135.88658791 30.46612549 135.88670349 C29.32746033 135.89186478 28.18879517 135.89702606 27.015625 135.90234375 C25.84489441 135.9037587 24.67416382 135.90517365 23.46795654 135.90663147 C19.72861171 135.9122291 15.98932674 135.9247812 12.25 135.9375 C9.71484461 135.9425153 7.17968829 135.94707816 4.64453125 135.95117188 C-1.57033293 135.96219776 -7.78516219 135.97893356 -14 136 C-13.98694824 135.24509277 -13.97389648 134.49018555 -13.96044922 133.71240234 C-13.95029785 132.72191895 -13.94014648 131.73143555 -13.9296875 130.7109375 C-13.91663574 129.72915527 -13.90358398 128.74737305 -13.89013672 127.73583984 C-14.06375653 123.41232071 -15.3940564 120.65092802 -18.39453125 117.56640625 C-23.68530667 112.83819429 -28.1481896 112.82980214 -34.984375 112.76171875 C-35.75879944 112.753647 -36.53322388 112.74557526 -37.33111572 112.73725891 C-38.96844264 112.72345288 -40.60579791 112.71271522 -42.24316406 112.70483398 C-43.90731314 112.69332692 -45.57142568 112.67289508 -47.23535156 112.64331055 C-49.65194533 112.60037979 -52.06744598 112.58443029 -54.484375 112.57421875 C-55.58480133 112.54795662 -55.58480133 112.54795662 -56.7074585 112.52116394 C-63.59388254 112.54965063 -69.04398612 114.5925983 -73.4375 120 Z " fill="#000000" transform="translate(301,35)"/>
<path d="M0 0 C40.92 0 81.84 0 124 0 C124.16121214 37.87589594 124.16121214 37.87589594 124.1953125 53.73828125 C124.21905423 64.69424929 124.24697641 75.65009435 124.30175781 86.60595703 C124.34163448 94.58479224 124.36743493 102.56352776 124.37635398 110.54245985 C124.38156734 114.76704524 124.39381444 118.99134543 124.42292023 123.21583939 C124.45010255 127.19344382 124.45843939 131.170646 124.45243073 135.1483345 C124.45352971 136.60681343 124.46146713 138.06530602 124.4768219 139.52370453 C124.49678969 141.5183586 124.48953918 143.51322928 124.48101807 145.50796509 C124.48470524 146.6233346 124.48839241 147.73870411 124.49219131 148.8878727 C123.74764056 153.5956696 121.43463539 156.74369786 117.88768005 159.8497467 C113.54439388 161.57981345 109.43185544 161.42570088 104.79711914 161.40405273 C103.77214828 161.41091599 102.74717743 161.41777924 101.69114685 161.42485046 C98.30567542 161.44313988 94.92066645 161.43927777 91.53515625 161.43359375 C89.18012847 161.43815451 86.82510202 161.44345976 84.47007751 161.44947815 C79.53476555 161.45841348 74.59961536 161.4559812 69.66430664 161.44604492 C63.34125345 161.43455493 57.01875867 161.45476565 50.69577885 161.48396206 C45.8324377 161.50231226 40.96923065 161.5020339 36.10586357 161.49632454 C33.77467503 161.49617118 31.44347748 161.50222745 29.11232185 161.51461601 C25.85195049 161.5295013 22.59261446 161.51886605 19.33227539 161.50170898 C17.88964828 161.51621094 17.88964828 161.51621094 16.4178772 161.53100586 C10.82086567 161.46936358 7.29300474 160.95843 3 157 C0.42948908 152.69081559 -0.37322594 149.53919468 -0.36076355 144.54592896 C-0.36488754 143.26714371 -0.36901154 141.98835846 -0.3732605 140.67082214 C-0.36264512 139.2663858 -0.35174072 137.86195162 -0.34057617 136.45751953 C-0.33972936 134.96896888 -0.3402061 133.48041699 -0.34190369 131.99186707 C-0.34276296 127.96124876 -0.32514837 123.93089934 -0.30418181 119.90034342 C-0.28540358 115.68429847 -0.28366367 111.46824707 -0.28010559 107.25216675 C-0.27078849 99.27308981 -0.24617926 91.29413646 -0.21605712 83.3151139 C-0.17622619 72.52977721 -0.16005553 61.74440661 -0.14255047 50.95901489 C-0.11435791 33.97258405 -0.05458619 16.98641401 0 0 Z M21.81359863 13.79138184 C19.03017414 18.71581563 19.4429983 23.39762059 19.48242188 28.96289062 C19.4754126 30.17478561 19.46840332 31.3866806 19.46118164 32.63529968 C19.4466078 35.95170143 19.45000185 39.26710302 19.46269798 42.58344841 C19.47284215 46.05780228 19.46342839 49.53211413 19.45715332 53.00646973 C19.44988099 58.84049124 19.45945354 64.67431006 19.47851562 70.50830078 C19.50028381 77.24823263 19.49323213 83.98768045 19.47121 90.72760057 C19.453044 96.51970573 19.45050347 102.31166536 19.46096468 108.10378981 C19.46719311 111.56083578 19.46805345 115.01765441 19.45481873 118.47468567 C19.44109307 122.32901753 19.46012963 126.18280948 19.48242188 130.03710938 C19.47432495 131.18012009 19.46622803 132.3231308 19.45788574 133.5007782 C19.50951958 139.62889255 19.50951958 139.62889255 21.81359863 145.20861816 C23.99460302 147.29273326 23.99460302 147.29273326 27.5 147.625 C31.00539698 147.29273326 31.00539698 147.29273326 33.18640137 145.20861816 C35.96982586 140.28418437 35.5570017 135.60237941 35.51757812 130.03710938 C35.5245874 128.82521439 35.53159668 127.6133194 35.53881836 126.36470032 C35.5533922 123.04829857 35.54999815 119.73289698 35.53730202 116.41655159 C35.52715785 112.94219772 35.53657161 109.46788587 35.54284668 105.99353027 C35.55011901 100.15950876 35.54054646 94.32568994 35.52148438 88.49169922 C35.49971619 81.75176737 35.50676787 75.01231955 35.52879 68.27239943 C35.546956 62.48029427 35.54949653 56.68833464 35.53903532 50.89621019 C35.53280689 47.43916422 35.53194655 43.98234559 35.54518127 40.52531433 C35.55890693 36.67098247 35.53987037 32.81719052 35.51757812 28.96289062 C35.52972351 27.24837456 35.52972351 27.24837456 35.54211426 25.4992218 C35.49048042 19.37110745 35.49048042 19.37110745 33.18640137 13.79138184 C31.00539698 11.70726674 31.00539698 11.70726674 27.5 11.375 C23.99460302 11.70726674 23.99460302 11.70726674 21.81359863 13.79138184 Z M56.83643341 13.68981171 C54.62389979 16.47312486 54.49778234 17.75894588 54.49206543 21.2755127 C54.48078613 22.34382828 54.46950684 23.41214386 54.45788574 24.51283264 C54.46598267 25.67971115 54.47407959 26.84658966 54.48242188 28.04882812 C54.4754126 29.28169052 54.46840332 30.51455292 54.46118164 31.78477478 C54.44659172 35.16314281 54.45001221 38.54053108 54.46269798 41.91884422 C54.47282921 45.45506477 54.46343198 48.99124362 54.45715332 52.52746582 C54.44987723 58.46581535 54.45946344 64.40396585 54.47851562 70.34228516 C54.50028452 77.20661319 54.49323311 84.07046599 54.47121 90.93478251 C54.45305474 96.82961039 54.45049822 102.72429525 54.46096468 108.61914206 C54.46719901 112.13932681 54.46803718 115.65928823 54.45481873 119.17945862 C54.44111264 123.10355078 54.46011214 127.02711116 54.48242188 130.95117188 C54.47432495 132.11805038 54.46622803 133.28492889 54.45788574 134.48716736 C54.46916504 135.55548294 54.48044434 136.62379852 54.49206543 137.7244873 C54.49357353 138.65214653 54.49508163 139.57980576 54.49663544 140.53557587 C55.1584068 143.77554436 56.43254479 144.9781673 59 147 C62.45238782 147.50347322 64.26782014 147.41556154 67.3125 145.6875 C70.21171334 142.78828666 70.1275538 139.89308932 70.14044189 136.00332642 C70.14615204 134.97148727 70.15186218 133.93964813 70.15774536 132.87654114 C70.15942215 131.17929146 70.15942215 131.17929146 70.16113281 129.44775391 C70.16609772 128.25565811 70.17106262 127.06356232 70.17617798 125.83534241 C70.18828617 122.5646217 70.19574453 119.29393673 70.20018864 116.02319765 C70.203121 113.97935365 70.20722609 111.93551523 70.21169281 109.89167404 C70.22536409 103.49565521 70.23503279 97.09964917 70.2388947 90.70361674 C70.24337599 83.3225901 70.26092854 75.9417486 70.2898953 68.56077826 C70.31151488 62.85367664 70.32159911 57.14662709 70.32293582 51.43948495 C70.32398357 48.03160188 70.32988493 44.62389294 70.34775543 41.21605301 C70.36477233 37.41423688 70.36294613 33.61287371 70.35644531 29.81103516 C70.3656601 28.68358383 70.37487488 27.55613251 70.3843689 26.39451599 C70.37879974 25.3570372 70.37323059 24.31955841 70.36749268 23.25064087 C70.36895924 22.35210199 70.3704258 21.45356312 70.3719368 20.52779579 C69.91556579 17.42615936 68.81660839 15.53360254 67 13 C63.32485161 11.1624258 60.09772398 11.14264398 56.83643341 13.68981171 Z M89 17 C88.2486915 20.98226696 88.32754639 24.92057169 88.36889648 28.96289062 C88.36174118 30.17478561 88.35458588 31.3866806 88.34721375 32.63529968 C88.33321567 35.95191264 88.34162014 39.26696316 88.36130404 42.58344841 C88.37771317 46.05779807 88.36887452 49.53209761 88.36378479 53.00646973 C88.35926631 58.84054402 88.37511799 64.67429745 88.40307617 70.50830078 C88.43512734 77.24824656 88.43511177 83.98761371 88.4178614 90.72760057 C88.40198419 97.21765919 88.40873744 103.70750615 88.42579842 110.19755554 C88.43266169 112.95665641 88.43164403 115.71558724 88.42425346 118.47468567 C88.41515278 122.32905038 88.43915195 126.18282312 88.46655273 130.03710938 C88.46002686 131.18012009 88.45350098 132.3231308 88.44677734 133.5007782 C88.50823696 139.63061711 88.50823696 139.63061711 90.81459045 145.21252441 C92.9927386 147.29938896 92.9927386 147.29938896 96.5 147.5625 C100.56596547 146.90904126 101.49463088 146.17084445 104 143 C104.59644264 140.495755 104.59644264 140.495755 104.50793457 137.7244873 C104.51921387 136.65617172 104.53049316 135.58785614 104.54211426 134.48716736 C104.53401733 133.32028885 104.52592041 132.15341034 104.51757812 130.95117188 C104.5245874 129.71830948 104.53159668 128.48544708 104.53881836 127.21522522 C104.55340828 123.83685719 104.54998779 120.45946892 104.53730202 117.08115578 C104.52717079 113.54493523 104.53656802 110.00875638 104.54284668 106.47253418 C104.55012277 100.53418465 104.54053656 94.59603415 104.52148438 88.65771484 C104.49971548 81.79338681 104.50676689 74.92953401 104.52879 68.06521749 C104.54694526 62.17038961 104.54950178 56.27570475 104.53903532 50.38085794 C104.53280099 46.86067319 104.53196282 43.34071177 104.54518127 39.82054138 C104.55888736 35.89644922 104.53988786 31.97288884 104.51757812 28.04882812 C104.52567505 26.88194962 104.53377197 25.71507111 104.54211426 24.51283264 C104.53083496 23.44451706 104.51955566 22.37620148 104.50793457 21.2755127 C104.50642647 20.34785347 104.50491837 19.42019424 104.50336456 18.46442413 C103.84195478 15.22622591 102.55914413 14.02823743 100 12 C94.48984115 10.9448632 92.22838281 12.58301023 89 17 Z " fill="#000000" transform="translate(194,187)"/>
<path d="M0 0 C10.56 0 21.12 0 32 0 C32 2.64 32 5.28 32 8 C30.11680732 9.88319268 26.88069863 9.13054285 24.375 9.1328125 C23.71290527 9.13376923 23.05081055 9.13472595 22.36865234 9.13571167 C20.96647039 9.13639326 19.5642853 9.13454042 18.16210938 9.13037109 C16.00904287 9.12502246 13.85618498 9.1303167 11.703125 9.13671875 C10.34374954 9.13605796 8.9843742 9.13477679 7.625 9.1328125 C6.37976563 9.13168457 5.13453125 9.13055664 3.8515625 9.12939453 C1 9 1 9 0 8 C0 5.36 0 2.72 0 0 Z " fill="#000000" transform="translate(240,163)"/>
</svg>
